{"title":"Hercules 2014 720p HDCAM NEW AUDIO x264 Pimp4003","uid":10700362,"size":1527847823,"categoryP":"video","categoryS":"movies","magnet":"?xt=urn:btih:ad94d8a76ce08d69acbce64d1b264e480fabfaaa&amp;dn=Hercules+2014+720p+HDCAM+NEW+AUDIO+x264+Pimp4003&amp;tr=udp%3A%2F%2Ftracker.openbittorrent.com%3A80&amp;tr=udp%3A%2F%2Fopen.demonii.com%3A1337&amp;tr=udp%3A%2F%2Ftracker.coppersurfer.tk%3A6969&amp;tr=udp%3A%2F%2Fexodus.desync.com%3A6969","seeders":32,"leechers":3,"uploader":"shawnmurthy","files":-1,"time":1407222000,"description":"[color=red][b]I RESPECT FANTA THEY DO A GOOD JOB ONT HE VIDEO. I DID NOT HAVE TO DO MUCH EXCEPT MAYBE BRIGHTEN THE DARK SCENES A LITTLE BIT. BUT THE OLD AUDIO WAS BAD SO I WAITED UNTIL I GOT THE NEW SOURCE AND IT IS GOOD. A LITTLE HOLLOW AND HAD SOME ECHO, BUT ITS NOT BAD YOU CAN HEAR IT AND THAT'S WHATS IMPORTANT. BLAH BLAH FREAKING BLAH LOL. YOU GUYS KNOW HOW I ROLL. ENJOY. PIMP4003\n OUT[/b][/color]\n\nVIDEO SOURCE IS FANTA\nAUDIO SOURCE IS SPECTRE\n\n[IMG]http://i.imgur.com/Q7K4oJu.png[/IMG]\n\n[IMG]http://i.imgur.com/69uL5sU.jpg[/IMG]\n\n[URL=http://istoreimg.com/i/53e05fca1d953.html][IMG]http://istoreimg.com/upload/small/2014/08/05/53e05fca1d918.jpg[/IMG][/URL]\n\n[color=blue][b]SUPER FAST DOWNLOAD SPEEDS, REQUESTS, SCREENSHOTS, VIDEO INFO, SAMPLE AND FOR EXCLUSIVE RELEASES VISIT BELOW LINK[/b][/color]\n\nHercules 2014 720p HDCAM NEW AUDIO x264 Pimp4003\n\nENJOY\n\nPIMP4003.....:)\n\nVideo\n\nID : 2\n\nFormat : AVC\n\nFormat/Info : Advanced Video Codec\n\nFormat profile : &lt;a class=&quot;__cf_email__&quot; href=&quot;/cdn-cgi/l/email-protection&quot; data-cfemail=&quot;63210210060f0a0d06232f504d53&quot;&gt;[email&amp;#160;protected]&lt;/a&gt;&lt;script cf-hash='f9e31' type=&quot;text/javascript&quot;&gt;\n/* &lt;![CDATA[ */!function(){try{var t=&quot;currentScript&quot;in document?document.currentScript:function(){for(var t=document.getElementsByTagName(&quot;script&quot;),e=t.length;e--;)if(t[e].getAttribute(&quot;cf-hash&quot;))return t[e]}();if(t&amp;&amp;t.previousSibling){var e,r,n,i,c=t.previousSibling,a=c.getAttribute(&quot;data-cfemail&quot;);if(a){for(e=&quot;&quot;,r=parseInt(a.substr(0,2),16),n=2;a.length-n;n+=2)i=parseInt(a.substr(n,2),16)^r,e+=String.fromCharCode(i);e=document.createTextNode(e),c.parentNode.replaceChild(e,c)}}}catch(u){}}();/* ]]&gt; */&lt;/script&gt;\n\nFormat settings, CABAC : No\n\nFormat settings, ReFrames : 1 frame\n\nFormat settings, GOP : M=1, N=25\n\nMuxing mode : Container profile=&lt;a class=&quot;__cf_email__&quot; href=&quot;/cdn-cgi/l/email-protection&quot; data-cfemail=&quot;aae8cbd9cfc6c3c4cfea9e849b&quot;&gt;[email&amp;#160;protected]&lt;/a&gt;&lt;script cf-hash='f9e31' type=&quot;text/javascript&quot;&gt;\n/* &lt;![CDATA[ */!function(){try{var t=&quot;currentScript&quot;in document?document.currentScript:function(){for(var t=document.getElementsByTagName(&quot;script&quot;),e=t.length;e--;)if(t[e].getAttribute(&quot;cf-hash&quot;))return t[e]}();if(t&amp;&amp;t.previousSibling){var e,r,n,i,c=t.previousSibling,a=c.getAttribute(&quot;data-cfemail&quot;);if(a){for(e=&quot;&quot;,r=parseInt(a.substr(0,2),16),n=2;a.length-n;n+=2)i=parseInt(a.substr(n,2),16)^r,e+=String.fromCharCode(i);e=document.createTextNode(e),c.parentNode.replaceChild(e,c)}}}catch(u){}}();/* ]]&gt; */&lt;/script&gt;\n\nCodec ID : avc1\n\nCodec ID/Info : Advanced Video Coding\n\nDuration : 1h 32mn\n\nBit rate : 2 092 Kbps\n\nWidth : 1 280 pixels\n\nHeight : 720 pixels\n\nDisplay aspect ratio : 16:9\n\nFrame rate mode : Constant\n\nFrame rate : 23.976 fps\n\nOriginal frame rate : 23.000 fps\n\nColor space : YUV\n\nChroma subsampling : 4:2:0\n\nBit depth : 8 bits\n\nScan type : Progressive\n\nBits/(Pixel*Frame) : 0.095\n\nStream size : 1.36 GiB (95%)\n\nWriting library : \n\nLanguage : English\n\nAudio\n\nID : 1\n\nFormat : AAC\n\nFormat/Info : Advanced Audio Codec\n\nFormat profile : LC\n\nCodec ID : 40\n\nDuration : 1h 32mn\n\nBit rate mode : Constant\n\nBit rate : 99.1 Kbps\n\nChannel(s) : 6 channels\n\nChannel positions : Front: L C R, Side: L R, LFE\n\nSampling rate : 48.0 KHz\n\nCompression mode : Lossy\n\nStream size : 65.8 MiB (5%)\n\nLanguage : English\n &lt;a href=&quot;\nhttp://istoreimg.com/upload/big/2014/08/05/53e05fd444747.png&quot; rel=&quot;nofollow&quot; target=&quot;_NEW&quot;&gt;\nhttp://istoreimg.com/upload/big/2014/08/05/53e05fd444747.png&lt;/a&gt;\n &lt;a href=&quot;\nhttp://istoreimg.com/upload/big/2014/08/05/53e05fd91a287.png&quot; rel=&quot;nofollow&quot; target=&quot;_NEW&quot;&gt;\nhttp://istoreimg.com/upload/big/2014/08/05/53e05fd91a287.png&lt;/a&gt;\n &lt;a href=&quot;\nhttp://istoreimg.com/upload/big/2014/08/05/53e05fe43934f.png&quot; rel=&quot;nofollow&quot; target=&quot;_NEW&quot;&gt;\nhttp://istoreimg.com/upload/big/2014/08/05/53e05fe43934f.png&lt;/a&gt;","torrent":{"xt":"urn:btih:ad94d8a76ce08d69acbce64d1b264e480fabfaaa","amp;dn":"Hercules+2014+720p+HDCAM+NEW+AUDIO+x264+Pimp4003","amp;tr":["udp%3A%2F%2Ftracker.openbittorrent.com%3A80","udp%3A%2F%2Fopen.demonii.com%3A1337","udp%3A%2F%2Ftracker.coppersurfer.tk%3A6969","udp%3A%2F%2Fexodus.desync.com%3A6969"],"infoHash":"ad94d8a76ce08d69acbce64d1b264e480fabfaaa","infoHashBuffer":{"type":"Buffer","data":[173,148,216,167,108,224,141,105,172,188,230,77,27,38,78,72,15,171,250,170]},"announce":[],"urlList":[]}}